<?xml version="1.0" standalone="no"?><!DOCTYPE svg PUBLIC "-//W3C//DTD SVG 1.1//EN" "http://www.w3.org/Graphics/SVG/1.1/DTD/svg11.dtd"><svg t="1731382225613" class="icon" viewBox="0 0 1024 1024" version="1.1" xmlns="http://www.w3.org/2000/svg" p-id="1484" xmlns:xlink="http://www.w3.org/1999/xlink" width="200" height="200"><path d="M408.32 160c36.48 0 69.76 20.48 85.76 53.12l60.8 120.96c5.76 10.88 16.64 17.92 28.8 17.92H832c53.12 0 96 42.88 96 96v320c0 53.12-42.88 96-96 96H192c-53.12 0-96-42.88-96-96V256c0-53.12 42.88-96 96-96h216.32z m0 64H192c-17.92 0-32 14.08-32 32v512c0 17.92 14.08 32 32 32h640c17.92 0 32-14.08 32-32V448c0-17.92-14.08-32-32-32h-248.32c-36.48 0-69.76-20.48-85.76-53.12l-60.8-120.96c-5.76-10.88-16.64-17.92-28.8-17.92zM896 192v64h-288V192h288z" fill="#C36DB4" p-id="1485"></path></svg>